<?xml version="1.0"?>
<svg xmlns="http://www.w3.org/2000/svg" xmlns:xlink="http://www.w3.org/1999/xlink" version="1.1" id="Capa_1" x="0px" y="0px" viewBox="0 0 512 512" style="enable-background:new 0 0 512 512;" xml:space="preserve" width="512px" height="512px" class=""><g transform="matrix(0.999 0 0 0.999 0.255884 0.255884)"><g>
	<g>
		<path d="M464,64H48C21.49,64,0,85.49,0,112v288c0,26.51,21.49,48,48,48h416c26.51,0,48-21.49,48-48V112    C512,85.49,490.51,64,464,64z M452.48,96L256,236.32L59.52,96H452.48z M480,400c0,8.837-7.163,16-16,16H48    c-8.837,0-16-7.163-16-16V115.68l214.72,153.28c5.555,3.955,13.005,3.955,18.56,0L480,115.68V400z" data-original="#000000" class="active-path" data-old_color="#000000" fill="#EEA844"/>
	</g>
</g></g> </svg>
